<svg enable-background="new 0 0 1500 1500" viewBox="0 0 1500 1500" xmlns="http://www.w3.org/2000/svg"><path d="m733.7 871.7c9.5 0 17.2-9.7 17.2-21.6s-7.7-21.5-17.2-21.5-17.2 9.6-17.2 21.5c0 12 7.7 21.6 17.2 21.6z" fill="none"/><path d="m561.3 776.9 129.3 34.5c-17.2-51.7-129.3-34.5-129.3-34.5z" fill="none"/><path d="m1000.9 466.6c-9.5 0-17.2 7.7-17.2 17.2s7.7 17.2 17.2 17.2 17.3-7.7 17.3-17.2-7.7-17.2-17.3-17.2z" fill="none"/><g fill="#c46158"><path d="m1146 354.5c-20.5-10.2-42.9-.9-43.1-.8l-.9.4-380 121.5h-.2l-36.5 11.7-63.1 21c-43.7 14.9-88.9 30.2-132.3 41.4-23.5 6-39.4 16.6-48.5 32.5-23.5 40.6-3 114.2 16.8 185.4l2.8 10.1c24.1-32.5 56.2-58.6 95.2-74.8 125.3-52.1 273.5 18 331.1 156.5 40.2 96.8 25.4 201.2-29.9 273.2 99.1-77.4 118.1-227.1 40.2-343.7-81.6-122.2-238.5-161.7-350.4-88.1-1.9 1.3 22.4-23.4 39.3-34.5 118.6-78 284.9-36.2 371.5 93.4 54.4 81.4 64.2 178.1 34.7 258.1 53.3-82.5 53.1-198.2-9.5-292.8-81.9-123.6-238.9-163.7-350.7-89.6-1.6 1-3 2.2-4.5 3.3-.2.1-.3.1-.5.2 12.9-14.3 27.5-27.3 44.1-38.3 21.6-14.3 44.9-24.6 69-31.1.1 0 .2-.1.3-.1 107.6-28.8 231.6 19.2 302.5 126.2 86.8 131 61.1 300.9-57.5 379.4-13.1 8.7-26.8 15.7-41 21.4-13.2 14.6-28.1 27.9-45.2 39.1-23.7 15.6-49.4 26.2-75.9 32.4-17.5 14.9-37.2 27.4-59.3 36.5-125.3 52.1-273.5-18-331.1-156.5-32.2-77.4-29.1-159.9 1.7-226.6l-11.7-44.1c-14.1-50.7-28.5-102.5-28.5-147.3 0-24.4 4.3-46.8 15.2-65.7 14.1-24.3 37.9-40.9 70.8-49.3 42.1-10.8 86.6-25.9 129.7-40.6l63.7-21.2s10.8-3.5 28.8-9.2c-50.3-76-190.7-230.6-440.6-96.1-322.1 173.3-262 812.4 618.7 985 0 0 208.9-155.2 284.4-230.9l-294 114.7 349.8-174.9c33.7-39.1 62.5-78.2 86.9-117.1l-126.5-514c-7.3-29-19.3-47.9-35.8-56.1zm-145.1 146.6c-9.5 0-17.2-7.7-17.2-17.2s7.7-17.2 17.2-17.2 17.3 7.7 17.3 17.2-7.7 17.2-17.3 17.2z"/><path d="m1289.2 696.4 45.2 183.6c20-36.8 36.1-73.2 48.5-109-6.6-26.4-14.9-59.6-23.9-95.5z"/><path d="m1216.7 401.9 5.2 21.2 72.2-7.2c-2.6-10.5-4.2-16.8-4.3-17.1-11.7-32.7-29.7-53.9-53.4-62.8-19.1-7.1-39.6-5.9-56.9-2.1 17.1 15 29.6 37.7 37.2 68z"/><path d="m1113 190.7c-283.5-40.5-362.8 157.1-383.9 244.8 61.3-19.6 162.5-51.9 242.2-77.4l-22.1-29.5 94.8-25.9 4.4 30.7c25.4-8.1 41.4-13.2 41.5-13.3 3.9-1.6 19-7 38-6.3 18.2-8.8 70.9-30.2 120.8-11.6 34.4 12.8 59.7 41.4 75.1 85l.3.8 78.4 313.5c59.4-265.9-82.6-481.2-289.5-510.8z"/></g><path d="m767 1168.5c107.4-44.6 154.5-177 105.1-295.7-49.3-118.7-176.3-178.7-283.7-134.1s-154.4 177-105.1 295.7 176.3 178.7 283.7 134.1zm-33.3-339.9c9.5 0 17.2 9.6 17.2 21.5s-7.7 21.6-17.2 21.6-17.2-9.7-17.2-21.6c0-11.8 7.7-21.5 17.2-21.5zm-43.1-17.2-129.3-34.5s112.1-17.2 129.3 34.5z" fill="#00a9de"/></svg>